<svg xmlns="http://www.w3.org/2000/svg" width="22.379" height="17.047" viewBox="0 0 22.379 17.047">
  <g id="email" transform="translate(0 -61)">
    <g id="Group_29" data-name="Group 29" transform="translate(0 61)">
      <path id="Path_48" data-name="Path 48" d="M20.412,61H1.967A1.97,1.97,0,0,0,0,62.967V76.08a1.97,1.97,0,0,0,1.967,1.967H20.412a1.97,1.97,0,0,0,1.967-1.967V62.967A1.97,1.97,0,0,0,20.412,61Zm-.272,1.311-8.909,8.909L2.245,62.311Zm-18.83,13.5V63.232l6.315,6.261Zm.927.927,6.319-6.319,2.214,2.2a.656.656,0,0,0,.925,0l2.159-2.159,6.285,6.285Zm18.83-.927-6.285-6.285,6.285-6.285Z" transform="translate(0 -61)" fill="#ffc400"/>
    </g>
  </g>
</svg>
