<svg xmlns="http://www.w3.org/2000/svg" width="28.184" height="37.578" viewBox="0 0 28.184 37.578">
  <g id="lock" transform="translate(-64)">
    <g id="Group_28" data-name="Group 28" transform="translate(64)">
      <g id="Group_27" data-name="Group 27">
        <path id="Path_17" data-name="Path 17" d="M214.614,282.983l-.494,4.441a.783.783,0,0,0,.778.869h3.132a.783.783,0,0,0,.778-.869l-.494-4.441a3.1,3.1,0,0,0,1.281-2.518,3.132,3.132,0,1,0-6.263,0A3.1,3.1,0,0,0,214.614,282.983Zm1.85-4.084a1.56,1.56,0,0,1,.676,2.969.783.783,0,0,0-.437.791l.453,4.068h-1.382l.453-4.068a.783.783,0,0,0-.437-.791,1.56,1.56,0,0,1,.676-2.969Z" transform="translate(-202.373 -256.978)" fill="#fff"/>
        <path id="Path_18" data-name="Path 18" d="M91.4,14.092H89.052V10.96a10.96,10.96,0,0,0-21.921,0v3.132H64.783a.782.782,0,0,0-.783.783V34.447a3.135,3.135,0,0,0,3.132,3.131H89.052a3.135,3.135,0,0,0,3.131-3.132V14.875A.782.782,0,0,0,91.4,14.092ZM68.7,10.96a9.395,9.395,0,1,1,18.789,0v3.132H85.921V10.96a7.829,7.829,0,1,0-15.658,0v3.132H68.7Zm15.658,0v3.132H71.829V10.96a6.263,6.263,0,0,1,12.526,0Zm6.263,23.486a1.568,1.568,0,0,1-1.566,1.566H67.132a1.568,1.568,0,0,1-1.566-1.566V15.658H90.618Z" transform="translate(-64)" fill="#fff"/>
      </g>
    </g>
  </g>
</svg>
