<svg xmlns="http://www.w3.org/2000/svg" width="43.301" height="57.734" viewBox="0 0 43.301 57.734">
  <g id="lock" transform="translate(-64)">
    <g id="Group_28" data-name="Group 28" transform="translate(64)">
      <g id="Group_27" data-name="Group 27">
        <path id="Path_17" data-name="Path 17" d="M215.3,286.013l-.759,6.823a1.2,1.2,0,0,0,1.2,1.336h4.811a1.2,1.2,0,0,0,1.2-1.336l-.759-6.823a4.759,4.759,0,0,0,1.969-3.869,4.811,4.811,0,1,0-9.622,0A4.758,4.758,0,0,0,215.3,286.013Zm2.843-6.275a2.4,2.4,0,0,1,1.038,4.562,1.2,1.2,0,0,0-.672,1.216l.7,6.25h-2.124l.7-6.25a1.2,1.2,0,0,0-.672-1.216,2.4,2.4,0,0,1,1.038-4.562Z" transform="translate(-196.494 -246.06)" fill="#3954c4"/>
        <path id="Path_18" data-name="Path 18" d="M106.1,21.65H102.49V16.839a16.839,16.839,0,0,0-33.678,0V21.65H65.2a1.2,1.2,0,0,0-1.2,1.2v30.07a4.816,4.816,0,0,0,4.811,4.811H102.49a4.816,4.816,0,0,0,4.811-4.811V22.853A1.2,1.2,0,0,0,106.1,21.65ZM71.217,16.839a14.434,14.434,0,1,1,28.867,0V21.65H97.678V16.839a12.028,12.028,0,1,0-24.056,0V21.65H71.217Zm24.056,0V21.65H76.028V16.839a9.622,9.622,0,0,1,19.245,0ZM104.9,52.923a2.409,2.409,0,0,1-2.406,2.406H68.811a2.409,2.409,0,0,1-2.406-2.406V24.056H104.9Z" transform="translate(-64)" fill="#3954c4"/>
      </g>
    </g>
  </g>
</svg>
