<svg id="www" xmlns="http://www.w3.org/2000/svg" width="30.79" height="30.79" viewBox="0 0 30.79 30.79">
  <g id="Group_2" data-name="Group 2" transform="translate(4.016 4.016)">
    <g id="Group_1" data-name="Group 1">
      <rect id="Rectangle_18" data-name="Rectangle 18" width="2.008" height="2.008" fill="#fff"/>
    </g>
  </g>
  <g id="Group_5" data-name="Group 5" transform="translate(0 6.024)">
    <g id="Group_4" data-name="Group 4">
      <g id="Group_3" data-name="Group 3">
        <path id="Path_10" data-name="Path 10" d="M4.016,171.642v-2.008H2.008v-2.677H0v10.71H2.008v-6.024Z" transform="translate(0 -162.941)" fill="#fff"/>
        <rect id="Rectangle_19" data-name="Rectangle 19" width="2.008" height="4.016" transform="translate(2.008)" fill="#fff"/>
        <rect id="Rectangle_20" data-name="Rectangle 20" width="2.008" height="2.008" transform="translate(4.016 18.742)" fill="#fff"/>
        <rect id="Rectangle_21" data-name="Rectangle 21" width="2.008" height="4.016" transform="translate(2.008 14.726)" fill="#fff"/>
      </g>
    </g>
  </g>
  <g id="Group_8" data-name="Group 8" transform="translate(6.024)">
    <g id="Group_7" data-name="Group 7">
      <g id="Group_6" data-name="Group 6">
        <rect id="Rectangle_22" data-name="Rectangle 22" width="2.008" height="4.016" transform="translate(12.718 4.016)" fill="#fff"/>
        <rect id="Rectangle_23" data-name="Rectangle 23" width="4.016" height="2.008" transform="translate(0 2.008)" fill="#fff"/>
        <rect id="Rectangle_24" data-name="Rectangle 24" width="2.008" height="2.008" transform="translate(18.742 4.016)" fill="#fff"/>
        <path id="Path_11" data-name="Path 11" d="M177.667,2.008V0h-10.71V2.008h2.008V4.016h2.008V2.008h2.677V4.016h2.008V2.008Z" transform="translate(-162.941)" fill="#fff"/>
        <rect id="Rectangle_25" data-name="Rectangle 25" width="4.016" height="2.008" transform="translate(14.726 2.008)" fill="#fff"/>
      </g>
    </g>
  </g>
  <g id="Group_10" data-name="Group 10" transform="translate(26.774 6.024)">
    <g id="Group_9" data-name="Group 9">
      <rect id="Rectangle_26" data-name="Rectangle 26" width="2.008" height="4.016" fill="#fff"/>
    </g>
  </g>
  <g id="Group_12" data-name="Group 12" transform="translate(26.774 20.75)">
    <g id="Group_11" data-name="Group 11">
      <rect id="Rectangle_27" data-name="Rectangle 27" width="2.008" height="4.016" fill="#fff"/>
    </g>
  </g>
  <g id="Group_14" data-name="Group 14" transform="translate(24.766 24.766)">
    <g id="Group_13" data-name="Group 13">
      <rect id="Rectangle_28" data-name="Rectangle 28" width="2.008" height="2.008" fill="#fff"/>
    </g>
  </g>
  <g id="Group_16" data-name="Group 16" transform="translate(10.04 4.016)">
    <g id="Group_15" data-name="Group 15">
      <rect id="Rectangle_29" data-name="Rectangle 29" width="2.008" height="4.016" fill="#fff"/>
    </g>
  </g>
  <g id="Group_18" data-name="Group 18" transform="translate(4.016 8.032)">
    <g id="Group_17" data-name="Group 17">
      <path id="Path_12" data-name="Path 12" d="M85.525,140.259v-6.694H83.517v8.7H72.807v-8.7H70.8v6.694H66.783v2.008H70.8v6.024h2.008v-4.016h10.71v4.016h2.008v-6.024h4.016v-2.008Z" transform="translate(-66.783 -133.565)" fill="#fff"/>
    </g>
  </g>
  <g id="Group_20" data-name="Group 20" transform="translate(10.04 22.758)">
    <g id="Group_19" data-name="Group 19">
      <rect id="Rectangle_30" data-name="Rectangle 30" width="2.008" height="4.016" fill="#fff"/>
    </g>
  </g>
  <g id="Group_23" data-name="Group 23" transform="translate(6.024 22.758)">
    <g id="Group_22" data-name="Group 22">
      <g id="Group_21" data-name="Group 21">
        <rect id="Rectangle_31" data-name="Rectangle 31" width="4.016" height="2.008" transform="translate(14.726 4.016)" fill="#fff"/>
        <rect id="Rectangle_32" data-name="Rectangle 32" width="4.016" height="2.008" transform="translate(0 4.016)" fill="#fff"/>
        <rect id="Rectangle_33" data-name="Rectangle 33" width="2.008" height="4.016" transform="translate(12.718)" fill="#fff"/>
        <path id="Path_13" data-name="Path 13" d="M175.658,445.217H173.65v2.008h-2.677v-2.008h-2.008v2.008h-2.008v2.008h10.71v-2.008h-2.008Z" transform="translate(-162.941 -441.201)" fill="#fff"/>
      </g>
    </g>
  </g>
  <g id="Group_25" data-name="Group 25" transform="translate(26.774 10.04)">
    <g id="Group_24" data-name="Group 24">
      <path id="Path_14" data-name="Path 14" d="M447.225,166.957v2.677h-2.008v2.008h2.008v6.024h2.008v-10.71Z" transform="translate(-445.217 -166.957)" fill="#fff"/>
    </g>
  </g>
</svg>
